# xmcd
#
# Track frame offsets: 
#        150
#        13456
#        30375
#        43268
#        54366
#        68009
#        77673
#        89430
#        104249
#        119800
#        135704
#        150273
#        160753
#        177253
#        190306
#        204755
#        213308
#        228107
#        239297
#        252319
#
# Disc length: 3487 seconds
#
# Revision: 0
# Processed by: cddbd v1.5.2PL0 Copyright (c) Steve Scherf et al.
# Submitted via: ExactAudioCopy v1.3
#
DISCID=0f0d9d14
DTITLE=Ray Price - Ray Price_The Heart And Soul Of Ray Price [CD-R)
DYEAR=2015
DGENRE=Country
TTITLE0=Heartaches By The Number
TTITLE1=For The Good Times
TTITLE2=City Lights
TTITLE3=Crazy Arms
TTITLE4=Love Lifted Me
TTITLE5=Make The World Go Away
TTITLE6=Peace In The Valley
TTITLE7=Night Life
TTITLE8=I Won't Mention It Again
TTITLE9=She's Got Be A Saint
TTITLE10=How Great Thou Art
TTITLE11=Rock Of Ages
TTITLE12=You're The Best Thing That Ever
TTITLE13=In The Garden
TTITLE14=Farther Along
TTITLE15=Take My Hand, Precious Lord
TTITLE16=The Old Rugged Cross
TTITLE17=My Shoes Keep Walking Back To You
TTITLE18=What A Friend We Have In Jesus
TTITLE19=Amazing Grace
EXTD=
EXTT0=
EXTT1=
EXTT2=
EXTT3=
EXTT4=
EXTT5=
EXTT6=
EXTT7=
EXTT8=
EXTT9=
EXTT10=
EXTT11=
EXTT12=
EXTT13=
EXTT14=
EXTT15=
EXTT16=
EXTT17=
EXTT18=
EXTT19=
PLAYORDER=
